<svg width="24" height="24" viewBox="0 0 24 24" fill="none" xmlns="http://www.w3.org/2000/svg">
<g clip-path="url(#clip0)">
<path d="M6.58329 18.6667C6.35329 18.6667 6.16663 18.48 6.16663 18.25V14.0833C6.16663 13.8533 6.35329 13.6667 6.58329 13.6667H7.83329C8.75246 13.6667 9.49996 14.4142 9.49996 15.3333C9.49996 16.2525 8.75246 17 7.83329 17H6.99996V18.25C6.99996 18.48 6.81329 18.6667 6.58329 18.6667ZM6.99996 16.1667H7.83329C8.29246 16.1667 8.66662 15.7925 8.66662 15.3333C8.66662 14.8742 8.29246 14.5 7.83329 14.5H6.99996V16.1667Z" fill="#0B0103" fill-opacity="0.6"/>
<path d="M18.25 22H5.74996C4.60163 22 3.66663 21.065 3.66663 19.9167V4.08333C3.66663 2.935 4.60163 2 5.74996 2H18.25C19.3983 2 20.3333 2.935 20.3333 4.08333V19.9167C20.3333 21.065 19.3983 22 18.25 22ZM5.74996 2.83333C5.06079 2.83333 4.49996 3.39417 4.49996 4.08333V19.9167C4.49996 20.6058 5.06079 21.1667 5.74996 21.1667H18.25C18.9391 21.1667 19.5 20.6058 19.5 19.9167V4.08333C19.5 3.39417 18.9391 2.83333 18.25 2.83333H5.74996Z" fill="#0B0103" fill-opacity="0.6"/>
<path d="M12.4167 18.6667H10.75C10.52 18.6667 10.3334 18.48 10.3334 18.25V14.0833C10.3334 13.8533 10.52 13.6667 10.75 13.6667H12.4167C13.1059 13.6667 13.6667 14.2275 13.6667 14.9167V17.4167C13.6667 18.1058 13.1059 18.6667 12.4167 18.6667ZM11.1667 17.8333H12.4167C12.6467 17.8333 12.8334 17.6467 12.8334 17.4167V14.9167C12.8334 14.6867 12.6467 14.5 12.4167 14.5H11.1667V17.8333Z" fill="#0B0103" fill-opacity="0.6"/>
<path d="M14.9167 18.6667C14.6867 18.6667 14.5 18.48 14.5 18.25V14.9167C14.5 14.2275 15.0608 13.6667 15.75 13.6667H17.4167C17.6467 13.6667 17.8333 13.8533 17.8333 14.0833C17.8333 14.3133 17.6467 14.5 17.4167 14.5H15.75C15.52 14.5 15.3333 14.6867 15.3333 14.9167V18.25C15.3333 18.48 15.1467 18.6667 14.9167 18.6667Z" fill="#0B0103" fill-opacity="0.6"/>
<path d="M17.4167 17H14.9167C14.6867 17 14.5 16.8133 14.5 16.5833C14.5 16.3533 14.6867 16.1667 14.9167 16.1667H17.4167C17.6467 16.1667 17.8333 16.3533 17.8333 16.5833C17.8333 16.8133 17.6467 17 17.4167 17Z" fill="#0B0103" fill-opacity="0.6"/>
</g>
<defs>
<clipPath id="clip0">
<rect width="20" height="20" fill="white" transform="translate(2 2)"/>
</clipPath>
</defs>
</svg>
