<svg width="24" height="24" viewBox="0 0 24 24" fill="none" xmlns="http://www.w3.org/2000/svg">
<path fill-rule="evenodd" clip-rule="evenodd" d="M17 14.9166C17 15.8541 15.8467 16.9999 14.5 16.9999C13.1917 16.9999 10.6784 15.4341 9.62174 14.3783C8.56591 13.3216 7.00009 10.8083 7.00009 9.49996C7.00009 8.1533 8.14592 6.99997 9.08341 6.99997H9.91674C10.0751 6.99997 10.2209 7.08997 10.2909 7.23247C10.2909 7.2333 10.7917 8.2533 11.1209 8.89246C11.4917 9.61579 10.7959 10.4658 10.3992 10.8666C10.5409 11.2291 10.8726 11.9499 11.4617 12.5383C12.0509 13.1283 12.7709 13.4591 13.1342 13.6008C13.4517 13.2874 14.0634 12.7741 14.6625 12.7741C14.8217 12.7741 14.9717 12.8099 15.1075 12.8791C15.7475 13.2083 16.7675 13.7091 16.7675 13.7091C16.91 13.7791 17 13.9249 17 14.0833V14.9166ZM12.0001 2C6.48592 2 2.00012 6.48581 2.00012 11.9999C2.00012 13.9249 2.54595 15.7858 3.58011 17.3966L2.02762 21.4332C1.96929 21.5857 2.00512 21.7574 2.11845 21.8741C2.19845 21.9557 2.30678 21.9999 2.41678 21.9999C2.46428 21.9999 2.51095 21.9924 2.55678 21.9757L6.72259 20.4882C8.31008 21.4782 10.1301 21.9999 12.0001 21.9999C17.5142 21.9999 22 17.5141 22 11.9999C22 6.48581 17.5142 2 12.0001 2Z" fill="#0B0103" fill-opacity="0.87"/>
</svg>
