<svg width="383" height="287" viewBox="0 0 383 287" fill="none" xmlns="http://www.w3.org/2000/svg">
<path d="M0 287H383C316.651 256.377 273.825 228.529 199.5 226.716C129.028 224.997 59.4011 247.075 0 287Z" fill="#FFE473"/>
<path d="M207.418 236.381C202.245 226.573 200.24 215.921 201.19 204.953C201.401 202.001 198.234 201.157 196.123 202.422C195.701 193.775 194.539 185.021 192.639 176.584C192.534 176.057 192.217 175.635 192.006 175.319C189.05 155.492 186.095 135.771 183.244 115.944C183.139 114.89 182.4 114.362 181.555 114.152C181.028 113.624 180.394 113.202 179.444 113.202C174.694 113.097 169.944 112.886 165.194 112.781C163.505 112.675 162.554 113.941 162.449 115.312C162.238 115.312 161.921 115.206 161.71 115.206C159.599 114.784 156.854 117.21 158.543 119.425C158.543 119.53 158.649 119.53 158.649 119.636C157.91 121.956 157.382 124.276 157.065 126.596C155.693 131.447 155.482 136.298 156.326 141.36C156.115 141.571 156.01 141.888 155.904 142.099C153.898 147.899 152.104 153.805 150.732 159.816C148.62 164.878 147.776 169.835 148.304 175.319C148.304 175.53 148.409 175.741 148.409 175.846C148.198 178.061 147.881 180.381 147.67 182.596C146.509 185.97 145.981 189.345 145.665 192.825C145.242 193.775 144.926 194.724 144.504 195.567C143.553 198.098 142.709 200.63 142.076 203.161C141.653 203.477 141.231 203.688 140.809 204.004C138.803 205.481 139.331 208.855 141.337 209.488C141.337 210.965 141.548 212.441 141.865 213.918C141.442 214.234 141.126 214.761 141.02 215.394C140.492 218.347 140.176 221.405 140.176 224.358C139.648 225.096 139.225 225.835 138.909 226.678C138.17 226.889 137.431 227.522 137.325 228.366C137.009 228.893 136.903 229.526 137.114 230.369C137.22 230.791 137.325 231.108 137.431 231.424C137.22 232.373 137.114 233.322 137.114 234.377C137.009 236.064 138.592 237.119 140.07 237.119C140.598 237.541 141.231 237.752 141.865 237.752C142.603 238.49 143.87 238.701 144.926 238.279C145.031 239.439 145.77 240.494 146.931 240.916C147.248 241.021 147.459 241.126 147.776 241.232L148.093 242.181C148.832 244.712 152.526 244.923 153.687 243.025C170.894 247.981 190.528 250.196 206.257 240.705C207.84 239.756 208.262 237.963 207.418 236.381ZM162.449 188.185C163.61 188.08 164.56 187.131 164.666 185.865C165.51 187.447 166.566 188.818 167.833 190.189C167.727 190.189 167.727 190.189 167.621 190.294C165.932 189.662 164.243 189.029 162.554 188.396C162.449 188.291 162.449 188.185 162.449 188.185ZM184.089 189.872C184.406 189.24 184.828 188.607 185.145 187.974C185.25 189.451 185.356 190.822 185.567 192.298C185.356 192.404 185.25 192.509 185.039 192.614L184.933 192.509C184.722 192.404 184.617 192.193 184.406 192.087C184.722 191.349 184.511 190.505 184.089 189.872ZM178.072 188.818C177.755 188.607 177.439 188.396 177.016 188.291C176.7 187.869 176.277 187.552 175.75 187.447C177.439 187.025 178.916 186.181 180.289 185.021C179.55 186.287 178.811 187.658 178.072 188.818ZM187.889 182.385C187.995 182.807 187.995 183.334 188.1 183.756C187.784 183.756 187.467 183.756 187.256 183.861C187.467 183.439 187.678 182.912 187.889 182.385ZM174.061 122.905C174.8 123.01 175.433 122.905 175.961 122.694C175.644 123.538 175.222 124.381 174.905 125.225C174.694 123.538 172.794 122.694 171.21 123.221C170.577 122.799 169.944 122.483 169.31 122.061C170.894 122.378 172.477 122.588 174.061 122.905ZM173.533 140.095C173.216 139.884 173.005 139.568 172.688 139.357C172.794 139.146 172.899 139.04 173.111 138.829C173.216 139.251 173.427 139.673 173.533 140.095ZM168.255 144.63C168.677 145.473 169.099 146.423 169.522 147.372C168.994 147.161 168.466 146.844 167.938 146.528C167.833 146.106 167.621 145.79 167.199 145.684C167.621 145.368 167.938 144.946 168.255 144.63ZM159.704 169.835C160.654 168.675 161.71 167.515 162.871 166.46C163.716 165.722 163.716 164.14 162.871 163.402C161.71 162.453 160.549 161.398 159.493 160.449C159.81 160.238 160.021 159.816 160.127 159.394C160.866 159.078 161.499 158.551 161.604 157.707C161.921 156.547 162.238 155.281 162.449 154.121C163.716 155.281 164.982 156.441 166.249 157.496C167.094 158.234 168.571 158.656 169.627 157.918C170.788 157.074 171.949 156.23 173.111 155.387C173.322 155.387 173.533 155.387 173.85 155.281C179.128 153.699 183.667 157.601 182.4 163.085C181.872 165.3 183.878 166.671 185.567 166.566C185.989 169.729 186.517 172.788 186.939 175.952C186.517 175.846 186.2 175.952 185.672 176.057C184.089 176.584 182.928 177.323 181.872 178.272L181.767 178.166C180.5 177.323 178.811 177.955 177.966 179.115C176.277 181.752 173.638 182.807 170.577 182.174C169.838 181.963 169.205 182.068 168.677 182.385C168.255 181.541 167.833 180.697 167.516 179.643C166.988 177.955 165.299 177.323 163.716 178.061C162.449 178.694 161.182 179.326 159.915 179.959C159.915 179.959 159.915 179.959 159.81 179.959C158.649 178.694 157.804 177.217 156.96 175.741C158.965 174.475 159.915 172.155 159.704 169.835ZM153.371 234.377C153.265 233.639 153.265 232.901 153.16 232.162C153.582 232.901 154.11 233.639 154.532 234.272C154.215 234.377 153.793 234.377 153.371 234.377ZM154.954 164.456C155.06 164.351 155.165 164.14 155.271 164.035C155.587 163.402 156.01 162.769 156.326 162.136C156.432 162.242 156.432 162.347 156.538 162.558L158.332 164.667C158.121 164.878 157.804 165.089 157.593 165.3C156.749 164.562 155.799 164.456 154.954 164.773C154.849 164.562 154.849 164.456 154.954 164.456ZM156.854 184.389C156.326 184.599 155.799 185.021 155.587 185.654C155.376 184.389 155.165 183.123 154.849 181.963C155.482 182.701 156.221 183.545 156.854 184.389ZM158.332 223.831C157.91 223.62 157.488 223.409 157.065 223.198C156.432 221.933 155.904 220.773 155.271 219.612C157.065 220.983 158.86 222.354 160.654 223.725C159.915 223.62 159.177 223.725 158.332 223.831ZM182.4 240.705C183.033 240.705 183.561 240.494 184.089 240.177C184.722 240.494 185.356 240.705 185.989 240.916C184.3 241.127 182.611 241.232 180.922 241.232C181.344 241.126 181.872 240.916 182.4 240.705Z" fill="#F8B133"/>
<path d="M141.337 85.6771C140.703 85.5716 140.07 85.4662 139.437 85.4662C137.853 85.1498 136.164 85.6771 135.003 86.7317C132.153 89.0518 132.469 93.6921 135.003 96.1177C137.959 98.9652 142.603 98.1215 144.82 94.7467C146.826 91.372 145.348 86.6263 141.337 85.6771Z" fill="#FAD2E3"/>
<path d="M240.564 141.677C235.919 139.673 228.636 141.466 227.263 146.95C227.158 147.477 227.158 148.005 227.369 148.321C227.052 148.954 226.947 149.586 226.841 150.219C219.03 147.688 211.851 145.895 204.99 141.044C198.023 136.087 192.534 129.443 188.522 122.061C188.206 120.585 187.889 119.003 187.467 117.526C187.889 117.843 188.206 118.054 188.628 118.265C188.628 118.265 188.734 118.265 188.734 118.37C194.539 121.639 202.245 121.112 205.096 114.573C209.001 115.523 213.224 115.417 216.285 112.464C219.346 109.406 219.241 105.187 218.607 101.18C222.619 102.235 226.947 98.6489 228.741 95.1687C230.747 91.2666 230.219 86.8373 228.002 83.3571C238.453 77.4512 240.775 62.3703 229.902 54.8826C229.691 54.7772 229.586 54.6717 229.375 54.6717C233.175 50.2423 230.536 43.9147 225.469 41.8055C225.997 30.6266 216.602 21.9788 205.623 23.6662C205.307 17.7604 199.184 13.542 193.801 16.2839C190.845 7.21431 176.277 1.3085 170.472 9.74537C168.36 7.63615 165.405 6.37063 162.238 6.47609C160.865 6.58155 158.121 7.31977 156.432 8.69076C153.371 2.89042 146.931 -0.800712 140.176 0.148436C133.736 0.992122 127.93 6.37063 127.086 12.8037C122.969 11.8546 118.113 13.8583 115.685 17.2331C113.68 19.9751 112.835 23.9826 114.207 27.1464C109.668 28.0956 105.129 30.8375 103.229 35.1614C102.068 37.6925 101.962 40.9618 103.335 43.4928C97.4233 45.9184 95.1009 54.7772 99.7456 58.8901C90.2451 65.0069 93.6231 83.568 104.179 85.6772C102.49 88.2083 102.279 91.8994 103.335 94.6414C103.968 96.2233 105.657 98.1216 107.557 98.8598C105.024 102.551 105.129 107.719 107.768 111.515C110.935 115.944 116.424 117.526 121.069 115.312C121.069 121.85 128.458 123.959 134.264 121.956C137.325 128.283 146.826 129.022 152.632 125.12C152.421 126.385 152.209 127.545 152.104 128.811C146.826 135.982 141.231 142.626 134.159 148.321C130.042 151.696 125.503 154.649 120.858 157.18C117.374 159.078 112.73 160.238 109.141 162.453C107.663 159.816 104.601 158.023 101.435 158.34C96.5788 158.867 92.9897 164.246 94.2564 168.886C95.5232 173.737 101.118 176.69 105.763 174.792C108.613 173.632 111.252 170.046 111.041 166.882C115.263 166.144 119.908 163.296 123.286 161.398C128.142 158.762 132.681 155.703 136.903 152.223C141.97 148.11 146.72 143.364 150.732 137.986C149.043 150.008 147.459 161.925 145.242 173.842C143.342 184.178 141.231 194.407 138.909 204.742C137.748 209.699 136.586 214.656 135.32 219.612C134.159 224.358 131.52 230.159 132.153 235.115C132.153 235.326 132.258 235.432 132.258 235.537C131.942 235.959 131.836 236.592 132.364 237.014C138.275 241.654 145.559 244.607 153.16 246.61C152.632 251.356 152.526 256.102 151.998 260.848C151.471 266.015 150.732 271.077 149.993 276.14C148.726 274.452 147.143 273.081 145.665 272.343C142.498 270.866 138.064 271.71 136.059 274.663C133.842 278.038 135.953 282.256 139.437 283.733C142.287 284.998 146.404 284.998 149.57 283.733C149.57 283.733 149.57 283.733 149.676 283.838C150.626 284.682 151.893 284.26 152.315 283.205C152.632 282.994 152.948 282.573 153.054 282.045C155.482 271.183 157.488 258.738 156.221 247.454C162.66 248.931 169.205 249.669 175.327 249.985C179.022 250.196 182.611 250.196 186.306 250.091C185.989 255.469 186.411 260.742 186.834 266.015C187.361 271.394 187.467 277.616 189.473 282.678C189.684 283.1 189.895 283.416 190.317 283.627C190.317 283.944 190.423 284.365 190.845 284.576C195.067 286.686 200.134 287.213 204.568 285.42C207.523 284.155 209.529 281.096 207.84 278.038C206.151 274.979 202.14 273.819 198.973 274.663C196.862 275.19 194.223 276.772 192.745 278.882C192.639 274.03 191.584 268.968 191.056 264.328C190.528 259.582 190 254.836 189.05 250.091C192.217 249.88 195.278 249.563 198.34 249.036C203.618 248.192 210.69 246.716 212.59 240.916C212.696 240.599 212.696 240.283 212.696 239.966C213.013 239.545 213.118 239.017 212.907 238.385C211.535 233.533 208.79 228.998 207.207 224.253C205.623 219.612 204.462 214.972 203.407 210.121C201.084 199.469 199.606 188.712 197.917 177.955C196.123 166.671 194.434 155.387 192.428 144.103C191.689 139.673 190.95 135.033 190.106 130.498C193.273 135.455 197.284 139.779 202.034 143.364C208.79 148.532 218.396 153.594 227.158 153.383C227.791 155.598 229.269 157.602 231.275 158.867C236.025 161.82 242.57 160.554 245.103 155.281C247.426 150.43 245.631 143.786 240.564 141.677ZM104.601 170.573C102.385 171.944 99.3234 170.573 98.3733 168.253C97.4233 165.722 99.3234 162.875 101.857 162.347C103.863 161.925 105.657 162.769 106.818 164.246C106.185 164.878 106.29 165.827 106.818 166.355C106.607 167.937 106.29 169.519 104.601 170.573ZM143.448 280.885C141.442 280.463 137.114 277.932 140.598 276.14C144.609 274.136 146.298 278.46 148.093 281.518C146.509 281.518 144.926 281.202 143.448 280.885ZM197.812 279.092C199.29 278.038 202.562 276.983 204.04 278.882C205.835 281.307 201.823 282.467 200.029 282.784C198.234 283.1 196.44 283.205 194.751 282.889C195.806 281.729 196.334 280.147 197.812 279.092ZM146.509 121.428C142.076 122.483 138.381 120.585 137.536 116.05C137.325 115.206 136.692 114.995 136.059 115.101C135.953 115.101 135.742 115.101 135.636 115.206C135.214 115.417 134.897 115.839 134.792 116.261C133.947 117.21 132.892 117.948 131.731 118.37C131.414 118.476 131.097 118.476 130.886 118.581C129.514 118.792 128.036 118.476 126.769 117.315C125.819 116.472 125.397 115.312 125.186 114.152C125.186 113.73 125.186 113.413 125.08 113.097C125.08 112.464 125.08 111.937 125.08 111.41C125.186 110.566 124.025 109.933 123.286 110.355C119.697 112.781 114.63 112.675 111.885 108.984C109.035 105.082 110.935 100.864 113.68 97.5943C113.891 97.2779 113.996 96.9615 113.891 96.6451C114.102 96.0124 113.363 95.2741 112.73 95.3796C109.668 96.2233 107.557 93.2704 108.085 90.4229C108.507 87.8919 110.513 85.9936 110.935 83.568C111.041 82.8297 110.302 82.0915 109.563 82.5134C109.352 82.6188 109.246 82.7243 109.035 82.8298C104.39 82.6188 99.5345 74.8147 98.7956 71.229C97.9511 66.7997 100.062 64.3741 102.912 61.7376C103.018 61.6321 103.124 61.6321 103.124 61.5267C103.335 61.4212 103.546 61.2103 103.651 60.9993L103.757 60.8939C104.074 60.5775 104.179 60.2611 104.074 59.8393C104.496 59.7338 104.601 59.312 104.39 58.8901C101.118 54.8826 100.59 50.1369 104.39 47.3949C104.918 47.184 105.446 46.9731 106.079 46.7621C106.607 46.6567 107.029 46.2348 107.24 45.813C107.663 45.4966 107.979 45.0748 107.768 44.5475C105.657 38.5362 108.824 33.8959 113.891 31.5758C114.524 31.3648 115.052 31.1539 115.685 31.0485C115.896 30.943 116.108 30.8375 116.319 30.7321C116.635 30.6266 116.847 30.4157 116.952 30.2048C117.058 30.2048 117.163 30.2048 117.269 30.0993C118.008 30.3102 118.852 29.7829 118.535 28.9392C116.108 22.4007 121.28 15.7566 128.353 18.9205C129.303 19.3423 130.569 18.815 130.569 17.6549C130.569 12.0655 134.897 7.00339 140.598 6.37062C146.192 5.73786 150.52 8.90168 153.582 13.2256C153.687 13.331 153.687 13.4365 153.793 13.542C154.004 13.7529 154.11 14.0693 154.321 14.2802C154.848 15.1239 156.01 15.0184 156.537 14.4911C156.749 14.4911 156.96 14.3856 157.065 14.2802C161.182 11.0109 166.566 12.2764 168.994 16.8113C169.627 17.9713 171.633 18.0768 172.161 16.8113C173.955 13.0147 177.966 10.2727 182.294 11.2218C187.361 12.3819 188.206 16.9167 189.578 21.1351C189.684 21.3461 189.789 21.557 190 21.7679C190.317 22.2952 190.95 22.6116 191.584 22.1898C195.595 19.7642 200.345 21.9788 200.873 26.1973C200.768 26.5136 200.768 26.9355 200.873 27.2519C200.873 27.5683 200.768 27.8846 200.768 28.3065C200.451 29.6775 201.823 30.6266 202.984 29.9939C207.629 27.6737 212.063 28.5174 215.968 31.9976C219.874 35.4778 220.93 38.958 218.819 43.3874C218.607 43.3874 218.291 43.4928 218.08 43.5983C216.602 43.9147 216.918 46.2348 218.396 46.2348C218.502 46.2348 218.607 46.2348 218.713 46.2348C219.03 46.4458 219.452 46.5512 219.874 46.4458H219.98C223.358 47.184 225.786 50.7696 222.935 54.1444C221.985 55.3045 222.408 56.7809 223.78 57.3082C228.741 59.312 232.119 64.9014 230.747 70.2799C229.269 76.0803 224.308 77.5567 219.346 79.2441C217.974 79.7714 217.657 81.9861 219.346 82.4079C219.557 82.5134 219.769 82.5134 220.085 82.5134C222.408 84.939 224.624 87.9973 223.885 91.4775C223.041 95.8014 218.713 98.1216 214.596 96.2233C213.752 95.8014 212.485 96.3287 212.485 97.3833C212.802 101.074 211.851 114.995 203.829 107.824C203.723 107.719 203.618 107.508 203.512 107.402C202.773 106.769 201.295 106.664 200.873 107.718C200.134 109.406 200.662 111.621 200.556 113.413C200.556 113.519 200.556 113.73 200.451 113.941C198.973 115.101 196.967 115.734 195.278 115.734C191.689 115.734 189.789 113.308 186.622 112.359C186.306 112.253 186.095 112.253 185.778 112.359C185.778 112.253 185.672 112.042 185.672 111.831C193.167 109.406 200.134 105.398 205.412 99.4926C211.535 92.6376 215.335 82.8297 214.596 73.5492C217.13 74.0765 220.296 71.9673 221.669 70.069C223.463 67.4325 223.358 63.9523 221.669 61.3157C220.191 58.9956 217.552 57.6246 214.807 58.1519C213.54 58.4683 212.379 58.9956 211.64 59.9447C211.535 59.312 211.113 58.7847 210.163 58.5738C208.579 58.2574 206.785 57.941 205.412 56.8864C204.251 55.9372 203.934 54.6717 203.618 53.3007C203.512 52.5625 202.668 52.3516 202.034 52.5625C201.823 52.5625 201.718 52.5625 201.507 52.5625C200.345 52.8789 199.712 53.7225 198.656 54.1444C197.073 54.7772 195.806 54.1444 194.751 52.7734C193.062 50.6642 192.428 47.9222 190.634 45.9184C190.106 45.3911 189.261 45.7075 189.05 46.3403C188.628 46.2348 188.206 46.2348 187.678 46.5512C185.883 47.9222 184.722 49.926 182.083 49.8205C179.866 49.715 177.755 48.0277 176.594 46.3403C176.489 46.2348 176.383 46.1294 176.277 46.0239C175.75 45.2857 174.8 44.9693 173.849 45.6021C170.999 47.6058 168.044 49.2932 164.455 49.3987C161.077 49.5041 156.01 48.1331 154.743 44.5475C154.426 43.5983 153.16 43.3874 152.632 44.2311C151.998 44.2311 151.365 44.5475 151.048 45.2857C148.726 49.5041 143.553 52.5625 139.859 47.9222C138.487 46.2348 136.059 48.1331 136.481 49.926C137.853 56.0427 129.936 54.1444 127.825 53.5116C126.03 52.9843 124.869 54.9881 125.608 56.4645C128.564 62.4758 121.175 62.054 118.958 61.843C118.008 61.7376 117.48 62.2649 117.374 63.0031C114.63 60.9994 110.091 61.4212 108.191 64.6905C106.818 67.1161 107.452 70.069 109.141 72.1782C110.196 73.4437 112.307 74.7093 114.207 74.6038C112.835 83.4625 116.847 93.6922 122.23 100.125C130.147 109.406 142.076 113.624 154.11 114.89C154.004 115.628 153.898 116.366 153.793 117.105C152.315 119.214 148.832 120.796 146.509 121.428ZM207.629 64.9014C212.168 76.1857 208.579 88.9465 199.712 97.1724C190.211 106.031 176.594 109.195 163.821 109.406C151.259 109.617 137.325 107.086 128.036 98.1216C118.641 89.1574 117.797 77.1349 121.491 65.4287C121.702 65.4287 121.913 65.4287 122.125 65.4287C126.769 67.0106 131.836 64.585 132.258 59.7338C136.059 60.5775 139.859 58.8901 141.548 55.199C146.72 57.941 153.265 56.2536 155.693 50.7696C161.604 55.4099 169.733 56.3591 175.433 51.1915C178.705 55.7263 184.617 56.6755 189.156 53.9335C190 56.57 191.373 59.1011 194.012 60.3666C196.123 61.4212 198.234 61.5267 200.24 60.7884C201.929 63.425 204.568 65.0069 207.629 64.9014ZM212.168 63.8468C212.379 63.7413 212.59 63.5304 212.696 63.214C213.752 60.2611 217.974 61.5267 218.924 63.8468C219.452 65.3232 219.241 66.9052 218.08 68.0652C217.024 69.1198 215.546 69.0144 214.279 69.4362C213.752 67.5379 213.013 65.6396 212.168 63.8468ZM117.48 66.3779C116.53 67.7488 115.791 69.1198 115.263 70.5963C114.419 70.3854 113.574 70.1744 112.835 69.5417C111.991 68.8034 111.357 67.5379 112.096 66.4833C113.257 64.6905 116.213 65.0069 117.48 66.3779ZM192.85 180.17C194.539 190.822 196.123 201.579 198.445 212.125C200.345 220.667 202.668 231.74 208.262 238.912C206.151 240.388 204.357 241.759 201.718 242.497C198.656 243.341 195.49 243.658 192.323 243.974C185.778 244.607 179.128 244.607 172.583 244.185C159.599 243.236 147.987 238.701 135.531 235.432C138.064 231.635 138.592 226.151 139.753 221.722C141.02 216.449 142.287 211.176 143.448 205.903C145.77 195.356 147.987 184.705 149.887 174.053C152.632 158.867 155.376 143.259 156.854 127.756C157.276 126.912 157.699 126.069 158.015 125.225C158.438 124.276 157.91 123.432 157.171 123.116C157.382 120.374 157.488 117.632 157.593 114.89C159.599 114.995 161.604 115.101 163.61 114.995C170.049 114.89 176.7 114.046 183.139 112.253C183.35 122.905 185.461 133.767 187.045 144.208C188.945 156.336 190.95 168.253 192.85 180.17ZM241.725 152.434C239.086 160.027 228.213 154.227 230.43 148.743C230.536 148.637 230.641 148.532 230.747 148.426C232.541 146.001 235.18 143.997 238.453 144.946C241.725 145.79 242.781 149.376 241.725 152.434Z" fill="#3C3C3B"/>
<path d="M180.711 165.933C181.661 165.089 182.505 164.035 182.928 163.085C184.3 159.816 182.822 156.336 179.761 154.543C175.538 152.117 171.316 154.649 170.049 158.34C169.31 157.601 168.466 156.969 167.621 156.652C164.982 155.492 161.921 156.336 160.127 158.551C158.543 160.554 158.015 163.507 159.388 165.827C159.81 166.566 160.443 167.093 161.077 167.515C160.021 168.042 159.176 168.886 158.543 169.519C156.749 171.522 156.326 174.581 157.487 177.006C158.754 179.643 161.499 180.803 164.243 179.854C165.088 179.537 165.827 179.115 166.46 178.588C166.46 179.01 166.566 179.432 166.671 179.748C167.621 182.807 170.683 184.494 173.744 183.967C176.7 183.545 179.128 181.225 179.233 178.166V178.061C182.083 178.272 185.144 176.901 186.095 173.948C187.467 169.94 184.406 166.144 180.711 165.933ZM178.494 156.863C180.5 158.023 181.45 160.449 180.289 162.558C179.022 164.878 177.016 164.773 174.8 165.089C174.166 164.562 173.427 164.14 172.688 164.035C172.688 163.929 172.688 163.929 172.583 163.824C170.155 160.027 173.955 154.227 178.494 156.863ZM162.871 160.133C163.927 159.078 165.51 158.867 166.777 159.605C168.149 160.449 168.466 161.609 168.888 162.98C166.988 163.085 165.088 164.351 164.349 166.249V166.355C163.082 166.038 162.027 164.773 161.71 163.718C161.393 162.558 162.027 161.082 162.871 160.133ZM164.243 177.112C162.238 177.744 160.338 176.901 159.915 174.792C159.599 172.893 160.76 171.206 162.238 170.151C162.766 169.729 163.399 169.519 164.032 169.308C164.455 171.206 165.827 172.893 167.621 173.842C166.882 175.213 165.827 176.584 164.243 177.112ZM170.366 164.878C170.049 165.3 170.26 166.038 170.788 166.144C172.688 166.46 174.905 167.409 173.744 169.835C172.794 171.733 170.472 172.261 168.783 171.311C165.299 169.413 167.199 165.089 170.366 164.878ZM173.427 181.225C171.633 181.436 170.049 180.592 169.521 178.799C168.994 177.217 169.627 175.846 170.366 174.475C171.633 174.475 172.899 174.159 174.061 173.421C174.377 175.319 175.433 176.584 176.805 177.323C176.7 179.221 175.644 180.908 173.427 181.225ZM183.561 173.104C181.767 176.584 177.966 175.213 176.383 172.366C176.172 172.05 175.961 171.839 175.75 171.839C176.277 171.1 176.7 170.151 176.7 169.097C176.7 168.675 176.7 168.253 176.594 167.726C176.805 167.726 177.016 167.726 177.227 167.62C177.439 167.831 177.65 167.831 177.966 167.726C181.239 166.355 185.356 169.519 183.561 173.104Z" fill="#3C3C3B"/>
<path d="M149.043 16.6004C146.509 13.3311 142.92 9.95633 138.803 12.8038C135.109 15.3348 133.103 20.186 132.575 24.6154C130.042 25.1427 127.403 27.2519 126.875 29.6775C126.664 29.6775 126.453 29.6775 126.347 29.6775C124.341 29.1502 122.125 29.1502 120.119 29.6775C116.847 30.5212 110.196 32.8413 111.041 37.2707C111.252 38.3253 111.991 39.3799 112.835 40.2236C116.53 46.0239 124.764 51.4024 129.936 45.1802C131.731 43.071 132.786 40.329 132.892 37.4816C136.059 38.2198 139.648 36.1106 140.492 32.8413C140.598 32.8413 140.809 32.9468 140.914 32.9468C144.187 33.1577 152.632 34.5287 153.793 30.0993C154.743 25.8809 151.471 19.7642 149.043 16.6004ZM128.247 38.8526C127.297 40.54 125.503 42.0164 124.13 43.1765C123.919 43.3874 123.814 43.4929 123.708 43.7038C121.808 42.3328 119.802 40.9618 118.008 39.4854C117.163 38.7471 114.63 37.3761 115.052 36.0052C115.263 35.2669 118.008 34.3178 118.641 34.0014C120.647 33.0522 123.18 32.2086 125.397 32.8413C125.397 32.8413 125.503 32.8413 125.503 32.9468C127.93 33.4741 128.669 36.2161 128.247 38.8526ZM134.686 33.5796C133.736 33.7905 132.575 33.4741 131.625 32.9468C131.414 32.5249 131.097 32.1031 130.781 31.6813C130.781 31.5758 130.675 31.4703 130.569 31.4703C130.569 31.4703 130.569 31.4703 130.464 31.3649C130.464 31.3649 130.464 31.3649 130.464 31.2594C131.203 30.3103 131.625 29.2557 133.103 29.0447C133.947 28.9393 134.581 29.1502 135.109 29.6775C134.686 30.5212 134.897 31.6813 135.848 32.1031C135.636 32.8413 135.214 33.2632 134.686 33.5796ZM136.481 25.0372C137.22 22.928 138.275 20.8188 139.331 19.026C140.492 17.0222 141.337 16.0731 143.448 17.5495C144.504 18.2877 145.242 19.8696 145.981 20.9243C147.565 23.2444 150.309 27.2519 146.826 28.6229C146.404 28.6229 146.087 28.6229 145.981 28.6229C144.187 28.6229 142.392 28.6229 140.598 28.6229C140.281 28.6229 140.07 28.6229 139.753 28.7284C139.225 27.1464 137.959 25.7755 136.481 25.0372Z" fill="#3C3C3B"/>
<path d="M144.504 69.0143C141.02 69.5416 138.487 73.7601 140.703 76.8184C141.442 77.8731 143.448 77.2403 142.92 75.8693C142.287 74.2874 143.554 72.1782 145.454 72.1782C147.776 72.2836 148.515 74.7092 148.937 76.6075C149.254 78.5058 152.104 77.9785 152.104 76.1857C152.104 72.3891 148.409 68.3816 144.504 69.0143Z" fill="#3C3C3B"/>
<path d="M190.95 65.4287C186.306 64.2686 181.872 68.698 182.822 73.2328C183.139 74.9201 185.778 74.4983 185.778 72.8109C185.883 70.5963 188.1 68.0652 190.423 69.0143C192.639 69.858 192.745 72.2836 192.111 74.1819C191.478 76.0802 194.117 76.9239 195.173 75.4475C197.706 71.9673 194.856 66.4833 190.95 65.4287Z" fill="#3C3C3B"/>
<path d="M175.011 98.9652C170.049 99.387 165.405 100.547 160.338 99.8089C155.482 99.0706 150.837 97.2778 146.615 94.8522C147.037 94.3249 147.67 93.9031 147.776 93.1648C147.881 92.5321 147.565 91.7938 146.931 91.6884C145.242 91.2665 144.081 93.0594 143.659 94.4304C143.237 95.8014 143.448 97.3833 144.187 98.6488C144.82 99.7034 146.615 98.9652 146.192 97.8051C146.087 97.3833 145.981 96.856 146.087 96.4341C153.687 102.867 166.671 106.558 175.75 101.391C176.594 100.653 176.277 98.8597 175.011 98.9652Z" fill="#3C3C3B"/>
<path d="M201.929 85.7826C200.134 81.8806 194.962 81.4587 192.428 84.4116C190.423 85.5717 189.367 87.9973 189.789 90.5284C190.528 94.114 194.223 96.1178 197.706 95.0632C201.612 93.7977 203.723 89.4738 201.929 85.7826Z" fill="#FAD2E3"/>
</svg>
