<svg width="24" height="24" viewBox="0 0 24 24" fill="none" xmlns="http://www.w3.org/2000/svg">
<path fill-rule="evenodd" clip-rule="evenodd" d="M7.43454 3.81815C5.44091 3.81815 3.81818 5.44088 3.81818 7.43451V16.5654C3.81818 18.5591 5.44091 20.1818 7.43454 20.1818H16.5655C18.5591 20.1818 20.1818 18.5591 20.1818 16.5654V7.43451C20.1818 5.44088 18.5591 3.81815 16.5655 3.81815H7.43454ZM16.5655 22H7.43455C4.43818 22 2 19.5618 2 16.5655V7.43455C2 4.43818 4.43818 2 7.43455 2H16.5655C19.5618 2 22 4.43818 22 7.43455V16.5655C22 19.5618 19.5618 22 16.5655 22Z" fill="#0B0103" fill-opacity="0.87"/>
<path fill-rule="evenodd" clip-rule="evenodd" d="M12 8.36361C9.9945 8.36361 8.36359 9.99452 8.36359 12C8.36359 14.0054 9.9945 15.6363 12 15.6363C14.0054 15.6363 15.6363 14.0054 15.6363 12C15.6363 9.99452 14.0054 8.36361 12 8.36361ZM12 17.4545C8.99177 17.4545 6.54541 15.0082 6.54541 12C6.54541 8.9918 8.99177 6.54544 12 6.54544C15.0081 6.54544 17.4545 8.9918 17.4545 12C17.4545 15.0082 15.0081 17.4545 12 17.4545Z" fill="#0B0103" fill-opacity="0.87"/>
<path fill-rule="evenodd" clip-rule="evenodd" d="M17.4545 6.54548C16.9536 6.54548 16.5454 6.13729 16.5454 5.63639C16.5454 5.13548 16.9536 4.72729 17.4545 4.72729C17.9554 4.72729 18.3636 5.13548 18.3636 5.63639C18.3636 6.13729 17.9554 6.54548 17.4545 6.54548Z" fill="#0B0103" fill-opacity="0.87"/>
</svg>
