<svg width="24" height="24" viewBox="0 0 24 24" fill="none" xmlns="http://www.w3.org/2000/svg">
<path fill-rule="evenodd" clip-rule="evenodd" d="M20.1818 2H3.81818C2.81545 2 2 2.81545 2 3.81818V20.1818C2 21.1845 2.81545 22 3.81818 22H10.6364C10.8873 22 11.0909 21.7964 11.0909 21.5455V15.1818C11.0909 14.9309 10.8873 14.7273 10.6364 14.7273H9.74636C9.49545 14.7273 9.29182 14.5236 9.29182 14.2727V11.5455C9.29182 11.2945 9.49545 11.0909 9.74636 11.0909H10.6364C10.8873 11.0909 11.0909 10.8873 11.0909 10.6364V9.72727C11.0909 7.47182 12.9264 5.63636 15.1818 5.63636H17.9091C18.16 5.63636 18.3636 5.84 18.3636 6.09091V8.81818C18.3636 9.06909 18.16 9.27273 17.9091 9.27273H15.1818C14.9309 9.27273 14.7273 9.47636 14.7273 9.72727V10.6364C14.7273 10.8873 14.9309 11.0909 15.1818 11.0909H17.9091C18.0427 11.0909 18.17 11.1491 18.2555 11.2509C18.3427 11.3536 18.38 11.4882 18.3573 11.6209L17.9027 14.3482C17.8664 14.5673 17.6782 14.7273 17.4545 14.7273H15.1818C14.9309 14.7273 14.7273 14.9309 14.7273 15.1818V21.5455C14.7273 21.7964 14.9309 22 15.1818 22H20.1818C21.1845 22 22 21.1845 22 20.1818V3.81818C22 2.81545 21.1845 2 20.1818 2Z" fill="#0B0103" fill-opacity="0.87"/>
</svg>
