<svg width="295" height="48" viewBox="0 0 295 48" fill="none" xmlns="http://www.w3.org/2000/svg">
<path d="M30.0837 22.4357C30.0837 22.4357 31.5329 21.2967 32.6922 21.1965C33.8515 21.0964 36.3161 22.7362 36.3161 22.7362L36.235 26.7123L30.2066 22.671L30.0837 22.4357Z" fill="#010101"/>
<path d="M65.0482 22.4357C65.0482 22.4357 63.6106 21.2967 62.4444 21.1849C61.2781 21.0731 58.8204 22.7245 58.8204 22.7245L58.9016 26.7006L64.9299 22.6593L65.0482 22.4357Z" fill="#010101"/>
<path d="M47.494 5.19427C41.8738 5.19427 37.3154 6.35892 37.3154 7.79143C37.3154 9.22394 41.8738 10.3909 47.494 10.3909C53.1143 10.3909 57.6727 9.22627 57.6727 7.79143C57.6727 6.35659 53.1143 5.19427 47.494 5.19427ZM47.5219 9.61992C42.625 9.61992 38.6579 8.87687 38.6579 7.96147C38.6579 7.04606 42.625 6.30069 47.5219 6.30069C52.4187 6.30069 56.3858 7.04373 56.3858 7.96147C56.3858 8.8792 52.4164 9.61992 47.5311 9.61992H47.5219Z" fill="#E9DF00"/>
<path d="M109.847 40.7338L108.789 35.7294H103.371L102.341 40.7338H100.13L105.548 16.7748H108.755L113.798 40.7338H109.847ZM106.08 22.9469L103.708 33.7372H108.452L106.08 22.9469Z" fill="#06090E"/>
<path d="M125.275 40.7339V26.2213C125.275 25.2395 125.061 24.5723 124.639 24.2196C124.049 23.8151 123.339 23.6266 122.627 23.6858C121.894 23.678 121.171 23.8619 120.53 24.2196C119.968 24.4941 119.479 24.9013 119.107 25.4063V40.7339H115.449V22.0606L119.107 21.1502V23.3712C119.683 22.6689 120.408 22.1041 121.228 21.7174C122.244 21.218 123.365 20.9712 124.496 20.9977C125.989 20.9977 127.096 21.3981 127.817 22.1988C128.543 23.0042 128.909 24.2482 128.909 25.9401V40.7149L125.275 40.7339Z" fill="#06090E"/>
<path d="M127.779 43.9175C128.558 43.9378 129.336 43.8382 130.085 43.622C130.62 43.4589 131.108 43.1697 131.508 42.7784C131.868 42.4018 132.126 41.9392 132.258 41.4344C132.409 40.846 132.482 40.2403 132.476 39.6328V22.0604L136.12 21.1501V38.5414C136.13 39.5534 136.02 40.563 135.792 41.5488C135.594 42.4091 135.181 43.2046 134.592 43.8603C133.942 44.5524 133.125 45.0645 132.22 45.3473C130.991 45.7243 129.709 45.8982 128.425 45.862L127.779 43.9175ZM136.319 17.4898C136.33 17.7304 136.289 17.9706 136.2 18.1942C136.111 18.4178 135.975 18.6196 135.802 18.7861C135.372 19.1065 134.852 19.2794 134.317 19.2794C133.782 19.2794 133.261 19.1065 132.832 18.7861C132.492 18.4431 132.301 17.9787 132.301 17.4945C132.301 17.0104 132.492 16.5459 132.832 16.2029C133.252 15.859 133.786 15.6885 134.326 15.7263C134.861 15.6876 135.39 15.8584 135.802 16.2029C135.979 16.3669 136.118 16.567 136.212 16.7898C136.305 17.0126 136.35 17.2529 136.343 17.4945L136.319 17.4898Z" fill="#06090E"/>
<path d="M144.873 41.1724C142.69 41.1724 141.077 40.4194 140.062 38.9181C139.047 37.4168 138.52 34.967 138.52 31.5688C138.517 30.2375 138.621 28.9081 138.833 27.5939C139.012 26.4043 139.413 25.2594 140.015 24.2196C140.599 23.236 141.432 22.4254 142.43 21.8699C143.666 21.2386 145.043 20.9382 146.429 20.9977C148.586 20.9977 150.178 21.7476 151.206 23.2473C152.234 24.747 152.748 27.1968 152.748 30.5965C152.751 31.9276 152.648 33.2569 152.44 34.5714C152.261 35.763 151.858 36.9096 151.254 37.9506C150.674 38.9298 149.847 39.7385 148.858 40.2955C147.627 40.9283 146.254 41.2304 144.873 41.1724ZM145.527 39.1087C146.149 39.1312 146.76 38.9487 147.269 38.5892C147.762 38.1953 148.135 37.6702 148.346 37.0736C148.63 36.2879 148.807 35.467 148.872 34.6334C148.967 33.6802 149.014 32.5681 149.014 31.2972C149.014 28.3803 148.749 26.2753 148.217 24.9821C147.691 23.6858 146.865 23.0424 145.746 23.0424C145.125 23.0156 144.515 23.2022 144.014 23.5714C143.533 23.9799 143.167 24.5095 142.956 25.1061C142.671 25.8965 142.494 26.7222 142.43 27.5606C142.335 28.5329 142.287 29.6449 142.287 30.8968C142.274 32.1455 142.342 33.3936 142.491 34.6334C142.584 35.5013 142.788 36.3535 143.098 37.1689C143.304 37.7334 143.652 38.2344 144.109 38.6226C144.513 38.9428 145.013 39.1144 145.527 39.1087Z" fill="#06090E"/>
<path d="M174.918 40.7338L174.823 38.4508C174.355 39.2542 173.705 39.9352 172.925 40.4383C172.1 40.9421 171.148 41.1969 170.183 41.1723C168.153 41.1723 166.633 40.4367 165.624 38.9656C164.615 37.4944 164.112 35.2052 164.115 32.0977C164.115 28.5136 164.607 25.7668 165.591 23.8572C166.574 21.9476 168.043 20.9944 169.998 20.9976C170.913 20.9795 171.813 21.235 172.584 21.7315C173.275 22.1712 173.877 22.7389 174.358 23.4044V16.7748L178.001 15.8645V40.7338H174.918ZM174.358 25.8065C174.129 25.2175 173.741 24.7043 173.238 24.3243C172.708 23.8986 172.048 23.6712 171.369 23.6809C170.81 23.6497 170.255 23.7958 169.782 24.0985C169.31 24.4012 168.944 24.8453 168.736 25.368C168.227 26.5024 167.972 28.3182 167.972 30.8156C167.967 31.8989 168.031 32.9813 168.162 34.0565C168.256 34.9027 168.46 35.7328 168.769 36.5254C168.995 37.131 169.371 37.6689 169.86 38.0886C170.313 38.4576 170.882 38.652 171.464 38.6367C172.062 38.6374 172.647 38.4581 173.143 38.122C173.683 37.7544 174.104 37.238 174.358 36.635V25.8065Z" fill="#06090E"/>
<path d="M190.55 40.7339C190.321 40.4157 190.16 40.054 190.075 39.6711C189.978 39.2597 189.921 38.84 189.904 38.4176C189.497 39.2644 188.846 39.9685 188.035 40.4384C187.143 40.9431 186.132 41.1966 185.108 41.1724C183.403 41.1724 182.138 40.6958 181.313 39.7425C180.487 38.7893 180.057 37.4803 180.022 35.8153C180.022 34.1281 180.354 32.8318 181.019 31.9358C181.815 30.9502 182.89 30.2306 184.102 29.8721C184.573 29.7021 185.057 29.5714 185.549 29.4812L187.044 29.2C187.518 29.1047 187.993 28.9903 188.467 28.8569C188.873 28.7394 189.256 28.5541 189.601 28.3088V26.3356C189.658 25.5169 189.439 24.7025 188.979 24.0241C188.562 23.4998 187.774 23.2425 186.607 23.2425C185.816 23.2207 185.034 23.4203 184.349 23.8192C183.662 24.2699 183.124 24.9174 182.807 25.6779L181.004 24.3053C181.531 23.2158 182.4 22.33 183.476 21.7841C184.54 21.2716 185.707 21.0107 186.887 21.0215C187.717 21.0179 188.545 21.0849 189.364 21.2217C190.085 21.336 190.773 21.6024 191.385 22.0033C191.977 22.4118 192.446 22.9756 192.741 23.6333C193.098 24.4991 193.26 25.4332 193.216 26.369V37.8504C193.215 38.3638 193.263 38.876 193.358 39.3803C193.45 39.8812 193.658 40.3532 193.965 40.7577L190.55 40.7339ZM189.601 30.0055C189.138 30.2507 188.645 30.4349 188.135 30.5536C187.575 30.687 187.034 30.8396 186.517 31.0302C185.617 31.2679 184.825 31.8077 184.273 32.5601C183.786 33.3702 183.548 34.3072 183.59 35.2529C183.59 36.5016 183.813 37.4167 184.259 37.9886C184.517 38.2882 184.842 38.5225 185.207 38.6724C185.572 38.8222 185.967 38.8836 186.361 38.8513C187.046 38.8624 187.72 38.6647 188.291 38.2841C188.864 37.8956 189.318 37.3542 189.601 36.7209V30.0055Z" fill="#06090E"/>
<path d="M217.824 41.0579C217.537 40.7328 217.304 40.3625 217.136 39.9617C216.972 39.571 216.857 39.1611 216.795 38.7416C216.665 39.0527 216.474 39.3347 216.235 39.5709C215.93 39.8794 215.584 40.1426 215.205 40.3525C214.749 40.6094 214.263 40.8095 213.758 40.9483C213.155 41.1093 212.532 41.1878 211.908 41.1818C210.807 41.2051 209.711 41.0358 208.668 40.6814C207.745 40.3384 206.95 39.7155 206.395 38.8989C205.713 37.8406 205.253 36.6534 205.043 35.4101C204.7 33.559 204.541 31.6783 204.569 29.7957C204.549 27.8407 204.708 25.8879 205.043 23.9621C205.281 22.4812 205.782 21.0555 206.523 19.7536C207.146 18.6806 208.057 17.8053 209.152 17.2276C210.344 16.6327 211.664 16.3414 212.994 16.3793C213.773 16.3655 214.549 16.4881 215.286 16.7415C215.904 16.9648 216.482 17.2866 216.999 17.6947C217.472 18.0656 217.872 18.5213 218.18 19.0387C218.473 19.526 218.708 20.0458 218.882 20.5877L216.918 21.7744C216.627 20.9167 216.139 20.1396 215.495 19.5058C214.84 18.9316 213.99 18.6344 213.123 18.6765C212.389 18.6388 211.663 18.8353 211.048 19.2377C210.432 19.64 209.96 20.2277 209.697 20.9166C209.237 21.9777 208.938 23.1023 208.81 24.2528C208.589 26.0056 208.489 27.7717 208.511 29.5383C208.497 31.0886 208.569 32.6385 208.729 34.1805C208.819 35.173 209.051 36.1473 209.417 37.0735C209.649 37.6897 210.075 38.2123 210.632 38.5605C211.186 38.8565 211.807 39.0027 212.435 38.9847C213.64 38.9847 214.481 38.6463 214.959 37.9695C215.448 37.2454 215.699 36.3851 215.675 35.5102V33.07C215.69 32.9438 215.675 32.8158 215.631 32.6965C215.587 32.5772 215.516 32.47 215.423 32.3837C215.159 32.2356 214.857 32.1709 214.555 32.1978H212.933L213.151 30.5392H219.1V36.044C219.083 36.8441 219.156 37.6436 219.318 38.427C219.45 39.0147 219.693 39.5714 220.035 40.0666L217.824 41.0579Z" fill="#06090E"/>
<path d="M231.895 40.7339L231.8 38.5415C231.547 38.8906 231.255 39.2103 230.932 39.4947C230.555 39.8243 230.141 40.109 229.698 40.343C229.204 40.6037 228.682 40.8083 228.142 40.9531C227.523 41.1143 226.885 41.1928 226.245 41.1866C224.584 41.1866 223.381 40.7958 222.634 40.0142C221.885 39.2325 221.515 37.9934 221.515 36.3062V22.0605L225.187 21.1501V35.9249C225.187 36.9258 225.4 37.5978 225.827 37.9409C226.42 38.3328 227.127 38.514 227.834 38.4557C228.563 38.4599 229.281 38.2778 229.921 37.9266C230.475 37.6465 230.955 37.2381 231.321 36.7351V22.0605L234.993 21.1501V40.7339H231.895Z" fill="#06090E"/>
<path d="M247.527 40.7339C247.299 40.4157 247.137 40.054 247.053 39.6711C246.956 39.2597 246.899 38.84 246.882 38.4176C246.475 39.2644 245.824 39.9685 245.013 40.4384C244.121 40.9431 243.109 41.1966 242.086 41.1724C240.384 41.1724 239.119 40.6958 238.29 39.7426C237.462 38.7894 237.032 37.4803 237 35.8153C237 34.1282 237.332 32.8318 237.996 31.9358C238.793 30.9502 239.868 30.2306 241.08 29.8721C241.543 29.7034 242.019 29.5727 242.503 29.4813L243.998 29.2001C244.472 29.1047 244.946 28.9904 245.421 28.8569C245.827 28.7395 246.21 28.5542 246.555 28.3088V26.3357C246.612 25.5169 246.393 24.7026 245.933 24.0241C245.516 23.4999 244.728 23.2425 243.561 23.2425C242.77 23.2207 241.988 23.4204 241.303 23.8192C240.617 24.2712 240.08 24.9183 239.761 25.678L237.958 24.3053C238.486 23.2144 239.356 22.3283 240.435 21.7841C241.497 21.271 242.662 21.0101 243.841 21.0215C244.671 21.018 245.499 21.0849 246.317 21.2217C247.04 21.3368 247.73 21.6031 248.343 22.0033C248.933 22.4134 249.4 22.9768 249.695 23.6333C250.06 24.4973 250.23 25.4314 250.193 26.369V37.8504C250.193 38.3638 250.241 38.876 250.336 39.3804C250.427 39.8812 250.635 40.3532 250.943 40.7577L247.527 40.7339ZM246.578 30.0055C246.115 30.2508 245.622 30.435 245.112 30.5536C244.553 30.6871 244.012 30.8396 243.495 31.0302C242.595 31.2667 241.805 31.807 241.255 32.5601C240.765 33.3691 240.525 34.3066 240.567 35.253C240.567 36.5017 240.79 37.4167 241.236 37.9887C241.495 38.2883 241.819 38.5225 242.185 38.6724C242.55 38.8223 242.945 38.8836 243.338 38.8513C244.024 38.8625 244.697 38.6647 245.269 38.2842C245.842 37.8956 246.295 37.3542 246.578 36.7209V30.0055Z" fill="#06090E"/>
<path d="M252.973 40.7339V22.0605L256.65 21.1501V23.6857C257.04 22.8312 257.71 22.1366 258.548 21.7173C259.412 21.2785 260.369 21.0531 261.337 21.0596C261.929 21.0568 262.517 21.1518 263.079 21.3408C263.644 21.5343 264.14 21.8927 264.502 22.3703L262.414 25.187C262.132 24.7 261.745 24.283 261.28 23.9669C260.854 23.7425 260.376 23.634 259.895 23.6523C259.161 23.6347 258.441 23.8553 257.841 24.2814C257.244 24.7175 256.815 25.3471 256.626 26.0639V40.7339H252.973Z" fill="#06090E"/>
<path d="M275.238 40.7338L275.143 38.4508C274.674 39.2531 274.024 39.9338 273.246 40.4383C272.42 40.9413 271.469 41.196 270.503 41.1722C268.467 41.1722 266.947 40.4367 265.944 38.9656C264.942 37.4944 264.437 35.2052 264.431 32.0977C264.431 28.5136 264.924 25.7668 265.911 23.8572C266.898 21.9476 268.367 20.9944 270.318 20.9976C271.232 20.9793 272.131 21.2349 272.899 21.7315C273.593 22.1698 274.197 22.7377 274.678 23.4044V16.7748L278.317 15.8645V40.7338H275.238ZM274.678 25.8065C274.449 25.2163 274.06 24.7027 273.554 24.3243C273.025 23.8997 272.366 23.6723 271.69 23.6808C271.13 23.6497 270.575 23.7958 270.103 24.0985C269.63 24.4012 269.264 24.8453 269.056 25.368C268.55 26.4992 268.296 28.3135 268.293 30.8109C268.285 31.8942 268.349 32.9768 268.482 34.0518C268.574 34.8984 268.778 35.7288 269.09 36.5206C269.316 37.1245 269.69 37.6619 270.176 38.0839C270.629 38.4521 271.197 38.6463 271.78 38.632C272.38 38.6327 272.966 38.4534 273.464 38.1172C274.002 37.7482 274.423 37.2322 274.678 36.6302V25.8065Z" fill="#06090E"/>
<path d="M290.846 40.7338C290.617 40.416 290.456 40.0542 290.372 39.6709C290.276 39.2593 290.217 38.8398 290.196 38.4175C289.793 39.2649 289.143 39.9695 288.332 40.4383C287.44 40.943 286.428 41.1965 285.405 41.1723C283.703 41.1723 282.438 40.6956 281.609 39.7424C280.781 38.7892 280.36 37.4706 280.348 35.7866C280.348 34.0994 280.68 32.8031 281.344 31.907C282.14 30.9215 283.215 30.2019 284.428 29.8433C284.898 29.6734 285.382 29.5427 285.874 29.4525L287.369 29.1713C287.843 29.076 288.318 28.9616 288.768 28.8282C289.175 28.7097 289.56 28.5245 289.907 28.2801V26.3069C289.964 25.4881 289.745 24.6738 289.286 23.9954C288.868 23.4711 288.081 23.2138 286.913 23.2138C286.122 23.192 285.34 23.3916 284.655 23.7905C283.967 24.2398 283.429 24.8877 283.113 25.6492L281.306 24.2766C281.833 23.1857 282.704 22.2996 283.782 21.7554C284.846 21.2429 286.013 20.982 287.193 20.9928C288.023 20.9894 288.851 21.0564 289.67 21.193C290.391 21.3073 291.08 21.5737 291.691 21.9746C292.282 22.3843 292.751 22.9478 293.048 23.6046C293.412 24.4686 293.582 25.4027 293.546 26.3403V37.8217C293.544 38.3349 293.59 38.8471 293.683 39.3516C293.779 39.8513 293.986 40.3224 294.291 40.729L290.846 40.7338ZM289.898 30.0054C289.449 30.255 288.971 30.4456 288.474 30.5726C287.915 30.706 287.374 30.8585 286.857 31.0492C285.956 31.2854 285.164 31.8256 284.613 32.5791C284.125 33.3891 283.887 34.3262 283.929 35.2719C283.929 36.5206 284.152 37.4357 284.598 38.0076C284.856 38.3075 285.181 38.542 285.546 38.6919C285.911 38.8418 286.307 38.9029 286.7 38.8703C287.386 38.8814 288.059 38.6837 288.631 38.3031C289.203 37.9156 289.656 37.3738 289.936 36.7398L289.898 30.0054Z" fill="#06090E"/>
<path d="M102.173 2.6549C102.227 2.6519 102.28 2.6519 102.334 2.6549H102.725C102.777 2.65204 102.829 2.65204 102.881 2.6549L104.912 8.81108H104.768H104.427H104.282L103.774 7.23862H101.254L100.768 8.81108H100.612H100.271H100.13L102.173 2.6549ZM103.601 6.68826L102.506 3.27209L101.422 6.68826H103.601Z" fill="#06090E"/>
<path d="M110.649 8.11927C110.727 8.11927 110.809 8.16644 110.895 8.19396C110.982 8.22147 111.075 8.249 111.181 8.27258C111.297 8.2983 111.415 8.31798 111.533 8.33155C111.683 8.34977 111.833 8.35897 111.983 8.35907C112.222 8.36371 112.46 8.32919 112.688 8.25686C112.865 8.20223 113.03 8.1127 113.173 7.99347C113.296 7.88581 113.392 7.75132 113.455 7.60035C113.518 7.44453 113.55 7.27742 113.549 7.10896C113.553 6.9597 113.531 6.81083 113.486 6.66867C113.439 6.54001 113.363 6.42422 113.263 6.33059C113.135 6.2108 112.99 6.11137 112.832 6.03576C112.645 5.94141 112.414 5.8392 112.136 5.73306C111.94 5.65836 111.745 5.57974 111.572 5.49326C111.401 5.41256 111.241 5.30802 111.099 5.1827C110.964 5.05813 110.853 4.90866 110.774 4.7424C110.69 4.53837 110.65 4.31855 110.657 4.09769C110.649 3.88587 110.69 3.67517 110.777 3.48169C110.863 3.2882 110.992 3.11703 111.154 2.98125C111.571 2.66756 112.086 2.51542 112.605 2.55275C112.731 2.55275 112.856 2.55275 112.997 2.55275L113.353 2.596C113.462 2.596 113.564 2.63531 113.658 2.65496L113.885 2.71786C113.885 2.80173 113.869 2.88821 113.838 2.97732C113.82 3.06298 113.795 3.1471 113.764 3.22891C113.594 3.17424 113.42 3.13219 113.243 3.10311C113.034 3.06751 112.822 3.0491 112.609 3.04808C112.247 3.01406 111.886 3.11788 111.596 3.33898C111.496 3.43303 111.418 3.54713 111.365 3.67381C111.313 3.80049 111.287 3.93689 111.291 4.07411C111.289 4.2109 111.322 4.34591 111.385 4.46722C111.448 4.58424 111.536 4.68613 111.643 4.766C111.765 4.85672 111.896 4.93445 112.034 4.99793C112.187 5.07262 112.351 5.13945 112.527 5.21021C112.766 5.30456 112.989 5.40677 113.196 5.50898C113.39 5.6017 113.569 5.7222 113.729 5.86671C113.887 6.01273 114.012 6.19184 114.095 6.3915C114.177 6.59115 114.215 6.80651 114.206 7.02247C114.209 7.2931 114.155 7.56129 114.046 7.8087C113.944 8.03484 113.791 8.23405 113.599 8.39051C113.391 8.55577 113.151 8.6774 112.895 8.74825C112.59 8.83526 112.273 8.87763 111.956 8.87405C111.676 8.87971 111.397 8.85466 111.122 8.79936C110.914 8.75512 110.707 8.70001 110.504 8.63425C110.514 8.53941 110.534 8.44586 110.563 8.35513C110.586 8.27471 110.615 8.19592 110.649 8.11927Z" fill="#06090E"/>
<path d="M119.931 8.11926C120.013 8.11926 120.095 8.16643 120.177 8.19395C120.259 8.22147 120.357 8.24899 120.463 8.27258C120.569 8.29617 120.686 8.31582 120.815 8.33154C120.966 8.34976 121.117 8.35895 121.269 8.35906C121.506 8.36342 121.743 8.3289 121.969 8.25685C122.147 8.20222 122.312 8.11269 122.455 7.99346C122.58 7.88702 122.677 7.75228 122.74 7.60035C122.804 7.44452 122.836 7.27741 122.834 7.10895C122.836 6.9598 122.815 6.81125 122.772 6.66866C122.725 6.54 122.648 6.42421 122.549 6.33058C122.419 6.21171 122.272 6.11239 122.114 6.03574C121.889 5.92252 121.658 5.82147 121.422 5.73304C121.222 5.65835 121.03 5.57972 120.854 5.49324C120.684 5.41254 120.526 5.30798 120.385 5.18268C120.248 5.05913 120.138 4.90943 120.06 4.74238C119.974 4.53868 119.933 4.31882 119.939 4.09767C119.932 3.88556 119.974 3.67477 120.061 3.48131C120.147 3.28784 120.277 3.11681 120.439 2.98122C120.855 2.66748 121.369 2.51528 121.887 2.55272C122.012 2.55272 122.142 2.55272 122.279 2.55272L122.639 2.59596C122.748 2.59596 122.85 2.63527 122.944 2.65493L123.171 2.71783C123.171 2.80169 123.155 2.88818 123.124 2.97729C123.1 3.06377 123.077 3.15026 123.049 3.22888C122.878 3.17427 122.703 3.13222 122.525 3.10308C122.316 3.06722 122.104 3.04881 121.891 3.04805C121.529 3.01519 121.168 3.11889 120.878 3.33896C120.778 3.433 120.699 3.5471 120.647 3.67378C120.594 3.80046 120.569 3.93687 120.572 4.07408C120.571 4.21088 120.603 4.34589 120.666 4.4672C120.731 4.58335 120.819 4.685 120.925 4.76597C121.047 4.85644 121.178 4.93416 121.316 4.99791C121.469 5.0726 121.633 5.13943 121.809 5.21019C122.048 5.30454 122.271 5.40675 122.474 5.50896C122.668 5.60073 122.848 5.72132 123.006 5.8667C123.154 6.00311 123.274 6.16741 123.359 6.35023C123.447 6.56298 123.49 6.79203 123.484 7.02246C123.488 7.2928 123.435 7.56098 123.327 7.8087C123.226 8.03483 123.073 8.23404 122.881 8.39051C122.671 8.55508 122.43 8.67661 122.173 8.74825C121.869 8.83499 121.554 8.87736 121.238 8.87405C120.958 8.88012 120.678 8.85507 120.404 8.79935C120.194 8.7556 119.986 8.70048 119.782 8.63425C119.796 8.54005 119.815 8.44682 119.841 8.35513C119.868 8.2883 119.899 8.19789 119.931 8.11926Z" fill="#06090E"/>
<path d="M131.913 8.90559C131.528 8.9137 131.147 8.833 130.798 8.66972C130.488 8.51643 130.219 8.2898 130.015 8.00929C129.797 7.70706 129.639 7.36534 129.55 7.00291C129.44 6.58607 129.386 6.15642 129.389 5.72528C129.385 5.29541 129.439 4.86699 129.55 4.45159C129.64 4.08945 129.798 3.74789 130.015 3.44522C130.219 3.16582 130.488 2.94049 130.798 2.78871C131.149 2.6332 131.529 2.55289 131.913 2.55289C132.297 2.55289 132.677 2.6332 133.028 2.78871C133.338 2.94049 133.607 3.16582 133.811 3.44522C134.028 3.74855 134.187 4.0898 134.28 4.45159C134.389 4.86718 134.442 5.29559 134.437 5.72528C134.441 6.15624 134.389 6.58588 134.28 7.00291C134.188 7.36498 134.029 7.70638 133.811 8.00929C133.607 8.2898 133.339 8.51643 133.028 8.66972C132.68 8.83381 132.298 8.91455 131.913 8.90559ZM131.913 8.36702C132.209 8.37358 132.502 8.30745 132.766 8.1744C133.005 8.0437 133.208 7.85771 133.361 7.6319C133.529 7.37731 133.649 7.0933 133.713 6.79456C133.794 6.44402 133.833 6.08511 133.83 5.72528C133.834 5.36544 133.794 5.00647 133.713 4.65601C133.65 4.35797 133.531 4.07495 133.361 3.82261C133.209 3.59699 133.005 3.41209 132.766 3.28404C132.499 3.15709 132.208 3.09123 131.913 3.09123C131.618 3.09123 131.327 3.15709 131.06 3.28404C130.818 3.40977 130.612 3.59508 130.461 3.82261C130.298 4.07784 130.18 4.3599 130.113 4.65601C130.035 5.00696 129.997 5.36569 130 5.72528C129.997 6.08485 130.035 6.44353 130.113 6.79456C130.181 7.09141 130.299 7.37452 130.461 7.6319C130.613 7.85965 130.819 8.04604 131.06 8.1744C131.324 8.30745 131.617 8.37358 131.913 8.36702Z" fill="#06090E"/>
<path d="M144.595 8.09965C144.637 8.18614 144.676 8.2687 144.713 8.34732C144.746 8.42745 144.772 8.51031 144.791 8.59498C144.571 8.70133 144.338 8.778 144.098 8.82298C143.821 8.87921 143.539 8.90688 143.257 8.90554C142.869 8.90857 142.485 8.83925 142.122 8.70112C141.787 8.57002 141.486 8.36439 141.242 8.09965C140.984 7.8192 140.79 7.48683 140.67 7.12473C140.527 6.69549 140.458 6.24472 140.467 5.79207C140.46 5.32694 140.527 4.86367 140.666 4.4201C140.785 4.04725 140.975 3.70134 141.226 3.40194C141.467 3.12762 141.767 2.91131 142.103 2.76902C142.469 2.61988 142.862 2.54634 143.257 2.55281C143.556 2.54693 143.855 2.57196 144.149 2.6275C144.388 2.67861 144.564 2.72185 144.67 2.75723C144.661 2.84356 144.645 2.92902 144.623 3.01275C144.598 3.09702 144.567 3.17973 144.533 3.26042L144.31 3.19359C144.224 3.16811 144.136 3.1484 144.047 3.13462C143.936 3.1141 143.824 3.09967 143.711 3.09137C143.586 3.09137 143.437 3.09137 143.265 3.09137C142.955 3.08581 142.648 3.1475 142.365 3.27221C142.099 3.39471 141.866 3.57779 141.684 3.80685C141.486 4.06179 141.338 4.35277 141.25 4.66383C141.143 5.03553 141.091 5.42101 141.097 5.8078C141.088 6.19592 141.145 6.58271 141.265 6.95176C141.363 7.25293 141.524 7.52922 141.739 7.76158C141.935 7.97151 142.175 8.13413 142.443 8.23724C142.722 8.34086 143.018 8.3928 143.316 8.39056C143.56 8.39226 143.805 8.36588 144.043 8.31193C144.236 8.26699 144.422 8.19556 144.595 8.09965Z" fill="#06090E"/>
<path d="M150.977 2.65496C151.026 2.6522 151.074 2.6522 151.122 2.65496H151.427C151.478 2.65496 151.521 2.65496 151.564 2.65496V8.81117H151.427H151.107H150.977V2.65496Z" fill="#06090E"/>
<path d="M159.571 2.65501C159.624 2.65201 159.678 2.65201 159.731 2.65501H160.122C160.175 2.65198 160.227 2.65198 160.279 2.65501L162.31 8.81119H162.165H161.825H161.68L161.171 7.23873H158.651L158.166 8.81119H158.009H157.669H157.528L159.571 2.65501ZM160.999 6.68837L159.903 3.2722L158.823 6.68837H160.999Z" fill="#06090E"/>
<path d="M171.877 8.09971C171.922 8.18619 171.961 8.26875 171.995 8.34737C172.028 8.42751 172.054 8.51037 172.073 8.59503C171.854 8.70081 171.623 8.77746 171.384 8.82304C171.104 8.87926 170.818 8.90692 170.531 8.9056L170.371 9.29872H170.445H170.524C170.758 9.28051 170.989 9.35532 171.169 9.50707C171.239 9.5754 171.294 9.65741 171.331 9.74802C171.368 9.83863 171.386 9.93591 171.384 10.0338C171.39 10.156 171.363 10.2775 171.307 10.3859C171.25 10.4944 171.167 10.5858 171.064 10.651C170.803 10.7985 170.506 10.8694 170.207 10.8555C170.108 10.8533 170.01 10.8455 169.913 10.8319C169.8 10.822 169.69 10.7914 169.588 10.7415C169.583 10.6695 169.583 10.5972 169.588 10.5252C169.598 10.4506 169.625 10.3792 169.667 10.3169C169.75 10.3456 169.835 10.3692 169.921 10.3876C170.01 10.4078 170.1 10.4183 170.191 10.4191C170.35 10.4269 170.509 10.3945 170.653 10.3247C170.706 10.2967 170.751 10.2535 170.781 10.2005C170.811 10.1474 170.825 10.0868 170.821 10.026C170.825 9.96979 170.811 9.91388 170.781 9.86598C170.752 9.81808 170.708 9.78057 170.657 9.75866C170.517 9.70305 170.368 9.6776 170.218 9.68397C170.141 9.67797 170.064 9.67797 169.987 9.68397L169.776 9.71935L169.733 9.68397L170.046 8.84663C169.713 8.79999 169.392 8.69487 169.095 8.53607C168.812 8.38091 168.564 8.16801 168.367 7.91101C168.157 7.6341 167.998 7.3211 167.898 6.98719C167.783 6.59147 167.727 6.1807 167.733 5.76852C167.726 5.30339 167.793 4.84012 167.933 4.39655C168.051 4.02276 168.243 3.67656 168.497 3.37837C168.736 3.10187 169.036 2.88518 169.373 2.74546C169.738 2.59632 170.129 2.52277 170.524 2.52925C170.824 2.52338 171.124 2.54841 171.42 2.60394C171.66 2.65374 171.832 2.69697 171.936 2.73366C171.928 2.81999 171.912 2.90547 171.889 2.98919C171.866 3.07404 171.836 3.15687 171.799 3.23686L171.576 3.17002C171.491 3.14494 171.405 3.12525 171.318 3.11106C171.22 3.0914 171.107 3.07961 170.981 3.06782C170.856 3.05602 170.704 3.06782 170.531 3.06782C170.222 3.06226 169.915 3.12394 169.631 3.24865C169.366 3.37115 169.133 3.55423 168.95 3.78329C168.752 4.03824 168.605 4.32922 168.516 4.64028C168.409 5.01198 168.358 5.39746 168.363 5.78425C168.355 6.17238 168.412 6.55917 168.532 6.92822C168.631 7.22868 168.792 7.50466 169.005 7.73804C169.203 7.94806 169.445 8.11064 169.713 8.21371C169.991 8.31771 170.286 8.36967 170.582 8.36702C170.827 8.36914 171.071 8.34276 171.31 8.2884C171.507 8.25232 171.698 8.18881 171.877 8.09971Z" fill="#06090E"/>
<path d="M179.61 2.65498C179.664 2.652 179.719 2.652 179.774 2.65498H180.165C180.217 2.65212 180.27 2.65212 180.322 2.65498L182.353 8.81116H182.208H181.868H181.723L181.21 7.2387H178.69L178.205 8.81116H178.044H177.704H177.567L179.61 2.65498ZM179.297 1.57785C179.187 1.57139 179.077 1.59882 178.984 1.65647C178.889 1.71709 178.8 1.78546 178.717 1.86089C178.62 1.7464 178.548 1.61239 178.506 1.46777C178.606 1.36527 178.717 1.27548 178.839 1.20045C178.972 1.11071 179.129 1.06406 179.289 1.06679C179.423 1.06565 179.556 1.09103 179.68 1.14149C179.805 1.19259 179.931 1.25156 180.052 1.31052C180.173 1.36949 180.294 1.42453 180.412 1.4717C180.521 1.51895 180.638 1.54433 180.756 1.5464C180.856 1.54843 180.955 1.52258 181.042 1.4717C181.137 1.40739 181.226 1.33505 181.308 1.25549C181.353 1.31637 181.394 1.38079 181.429 1.44812C181.461 1.51102 181.492 1.57784 181.519 1.6486C181.416 1.74272 181.305 1.82695 181.187 1.9002C181.048 1.98302 180.89 2.02524 180.729 2.02206C180.603 2.02182 180.478 1.99782 180.361 1.9513C180.236 1.90413 180.114 1.84909 179.993 1.79405L179.641 1.63288C179.531 1.59113 179.414 1.5724 179.297 1.57785ZM181.042 6.68834L179.942 3.27217L178.862 6.68834H181.042Z" fill="#06090E"/>
<path d="M190.316 8.90559C189.931 8.9137 189.549 8.833 189.201 8.66972C188.89 8.51643 188.622 8.2898 188.418 8.00929C188.2 7.70706 188.042 7.36534 187.952 7.00291C187.843 6.58607 187.789 6.15642 187.792 5.72528C187.788 5.29541 187.842 4.86699 187.952 4.45159C188.042 4.08945 188.2 3.74789 188.418 3.44522C188.622 3.16582 188.89 2.94049 189.201 2.78871C189.552 2.6332 189.932 2.55289 190.316 2.55289C190.7 2.55289 191.08 2.6332 191.431 2.78871C191.741 2.94049 192.01 3.16582 192.214 3.44522C192.431 3.74855 192.59 4.0898 192.683 4.45159C192.792 4.86718 192.845 5.29559 192.84 5.72528C192.844 6.15624 192.792 6.58588 192.683 7.00291C192.591 7.36498 192.432 7.70638 192.214 8.00929C192.01 8.2898 191.741 8.51643 191.431 8.66972C191.082 8.83381 190.701 8.91455 190.316 8.90559ZM190.316 8.36702C190.611 8.37358 190.904 8.30745 191.169 8.1744C191.407 8.0437 191.611 7.85771 191.764 7.6319C191.932 7.37731 192.051 7.0933 192.116 6.79456C192.197 6.44402 192.236 6.08511 192.233 5.72528C192.237 5.36544 192.197 5.00647 192.116 4.65601C192.053 4.35797 191.933 4.07495 191.764 3.82261C191.612 3.59699 191.408 3.41209 191.169 3.28404C190.902 3.15709 190.611 3.09123 190.316 3.09123C190.021 3.09123 189.729 3.15709 189.463 3.28404C189.221 3.40872 189.016 3.59431 188.868 3.82261C188.701 4.07673 188.582 4.3591 188.516 4.65601C188.438 5.00696 188.4 5.36569 188.402 5.72528C188.4 6.08485 188.438 6.44353 188.516 6.79456C188.582 7.09196 188.7 7.37535 188.864 7.6319C189.013 7.86036 189.218 8.04702 189.459 8.1744C189.724 8.30808 190.019 8.37422 190.316 8.36702Z" fill="#06090E"/>
<path d="M75.2013 22.5172C83.7267 18.5248 86.5995 11.4997 87.3669 6.98785C88.1344 2.47603 87.0307 0 87.0307 0C87.0307 0 83.3905 5.7743 80.6129 9.67119C77.8352 13.5681 69.4071 19.7756 65.4307 22.1282C63.3948 23.349 61.289 24.448 59.1241 25.4195C59.163 26.4527 59.2699 27.4821 59.4441 28.5011C64.8312 26.8848 70.0969 24.885 75.2013 22.5172Z" fill="#BFBFBF"/>
<path d="M59.5877 31.9624C61.1203 31.8064 64.4452 31.3685 69.8846 30.1689C77.74 28.4359 84.0628 25.2611 88.6119 20.9309C93.1609 16.6008 93.6409 8.56477 93.5922 8.46927C90.9583 14.3391 80.8052 20.3044 75.2498 23.4326C70.1605 26.2976 61.0137 28.7177 59.5135 29.1044C59.5391 29.3187 59.5599 29.533 59.5785 29.7473C59.6407 30.4842 59.6438 31.225 59.5877 31.9624Z" fill="#BFBFBF"/>
<path d="M75.4401 29.7846C70.2163 31.4453 61.1552 32.2722 59.5485 32.4097C59.4427 33.4054 59.2313 34.387 58.9178 35.3376C58.8807 35.4494 58.8413 35.5589 58.7996 35.6683C59.8128 35.7149 61.2735 35.7732 63.3718 35.8454C71.6098 36.1342 80.7103 34.3546 86.7896 30.5532C92.869 26.7518 93.2585 20.2648 93.2585 20.2648C92.6135 20.8905 91.9247 21.4689 91.1973 21.9954C90.0009 22.8549 81.1879 27.9514 75.4401 29.7846Z" fill="#BFBFBF"/>
<path d="M57.3365 39.4068C67.1557 41.5731 71.8972 41.6196 78.7464 40.7532C85.5955 39.8867 88.9945 31.4686 88.9945 31.4686C87.4093 32.4315 85.7428 33.2522 84.0142 33.9214C81.3316 34.9323 76.5947 36.0387 72.9035 36.3275C69.2123 36.6163 58.5816 36.3275 58.5816 36.3275L58.5259 36.3508C58.0579 37.3914 57.4737 38.3752 56.7847 39.2834L57.3365 39.4068Z" fill="#BFBFBF"/>
<path d="M67.777 45.9498C74.7699 47.4894 80.9003 41.573 80.9003 41.573C77.5476 42.9194 71.3222 42.535 67.202 42.1484C63.0819 41.7617 56.5922 39.6467 56.5922 39.6467L56.2189 40.0054C55.8433 40.4713 55.4491 40.9185 55.0433 41.3564C55.9986 41.8479 61.4427 44.5545 67.777 45.9498Z" fill="#BFBFBF"/>
<path d="M35.5649 25.0911C34.4056 24.5553 32.5229 23.6259 30.2599 22.2959L30.0837 22.4333L30.2275 22.2773L29.9771 22.1282C26.003 19.771 17.5726 13.5634 14.7949 9.66653C12.0172 5.76964 8.37705 0 8.37705 0C8.37705 0 7.27571 2.45274 8.04085 6.98785C8.80599 11.523 11.681 18.5364 20.2065 22.5288C25.0942 24.7949 30.1294 26.7249 35.2774 28.3055C35.3562 27.3318 35.4744 26.3489 35.544 25.3426C35.5579 25.2494 35.5625 25.1702 35.5649 25.0911Z" fill="#BFBFBF"/>
<path d="M35.2426 28.9318C32.6319 28.233 24.751 26.0132 20.1718 23.4323C14.6071 20.3041 4.46098 14.3481 1.82705 8.46902C1.77836 8.56453 2.25831 16.6006 6.80739 20.9307C11.3565 25.2608 17.6793 28.4357 25.5347 30.1686C28.7712 30.914 32.043 31.4955 35.3377 31.9109C35.1981 30.9243 35.1662 29.9254 35.2426 28.9318Z" fill="#BFBFBF"/>
<path d="M35.4234 32.377C33.0167 32.1604 24.8298 31.3382 19.9677 29.7915C14.2199 27.9631 5.40691 22.8619 4.20125 21.9954C3.47743 21.4689 2.79243 20.8905 2.15161 20.2648C2.15161 20.2648 2.53418 26.7588 8.61585 30.5602C14.6975 34.3616 23.798 36.1505 32.0336 35.8523C34.1714 35.7778 35.646 35.7196 36.6708 35.673C36.374 35.0612 36.0997 34.4338 35.8477 33.7909C35.6673 33.3323 35.5254 32.8594 35.4234 32.377Z" fill="#BFBFBF"/>
<path d="M36.8263 36.3368C36.8263 36.3368 26.2002 36.6163 22.5067 36.3368C18.8132 36.0573 14.0763 34.9393 11.3937 33.9307C9.66479 33.2586 7.99823 32.4347 6.41333 31.4686C6.41333 31.4686 9.81471 39.889 16.6638 40.7625C23.5129 41.636 28.2568 41.5824 38.0714 39.4161L38.7484 39.2647C38.1203 38.3526 37.5481 37.4028 37.035 36.4207L36.8263 36.3368Z" fill="#BFBFBF"/>
<path d="M28.2057 42.1601C24.0856 42.5467 17.8601 42.931 14.5074 41.5847C14.5074 41.5847 20.6378 47.5011 27.6307 45.9614C33.9512 44.5639 39.3697 41.8805 40.3551 41.3751C39.8558 40.7803 39.3821 40.1662 38.9338 39.5326C36.919 40.1708 31.5074 41.8409 28.2057 42.1601Z" fill="#BFBFBF"/>
<path d="M47.4454 22.1794C51.3203 22.1794 54.4614 19.1739 54.4614 15.4664C54.4614 11.759 51.3203 8.75345 47.4454 8.75345C43.5705 8.75345 40.4293 11.759 40.4293 15.4664C40.4293 19.1739 43.5705 22.1794 47.4454 22.1794Z" fill="#ED004F"/>
<path d="M59.5484 32.4093C59.5646 32.2602 59.5786 32.1112 59.5878 31.9621C59.647 31.2249 59.647 30.4841 59.5878 29.7469C59.5693 29.5327 59.5484 29.3184 59.5229 29.1041C59.4974 28.8898 59.4719 28.7011 59.4441 28.5008C59.2699 27.4818 59.163 26.4523 59.1241 25.4191C59.1173 24.8607 59.1702 24.3031 59.2818 23.756C59.8406 21.1076 62.8571 21.7202 64.8881 22.3095C62.1963 20.134 58.5955 20.1037 55.3819 20.8794C52.4257 21.5921 49.2516 24.3733 46.1075 23.4835C41.3057 22.1279 34.547 17.6743 30.2275 22.2793L30.0837 22.4353L30.26 22.2979C31.4308 21.4058 32.5785 21.0238 33.9697 21.8041C35.4211 22.617 35.653 23.4975 35.5649 25.0907C35.5649 25.1699 35.5649 25.2491 35.551 25.3236C35.4814 26.3299 35.3632 27.3128 35.2843 28.2865C35.2658 28.4985 35.2519 28.7127 35.238 28.9247C35.1633 29.9177 35.1967 30.9159 35.3377 31.9015C35.3632 32.0553 35.391 32.209 35.4235 32.3674C35.5232 32.8495 35.6628 33.3225 35.8408 33.7813C36.0928 34.4242 36.3671 35.0515 36.6639 35.6633C36.7845 35.9149 36.9074 36.1641 37.0349 36.4087C37.548 37.3908 38.1202 38.3406 38.7483 39.2528L38.9338 39.5183C39.3821 40.155 39.8558 40.7691 40.3551 41.3608C42.5624 43.953 45.1616 46.1806 48.0575 47.962C48.4725 48.2228 51.9643 44.468 52.3422 44.086C53.2372 43.2056 54.1646 42.3041 55.0434 41.3538C55.4491 40.9159 55.8433 40.4663 56.2189 40.0028C56.4137 39.7699 56.6015 39.5253 56.7847 39.2807C57.4737 38.3725 58.0579 37.3887 58.5259 36.3481C58.6233 36.1152 58.716 35.8963 58.7995 35.6657C58.8413 35.5562 58.8807 35.4467 58.9178 35.3349C59.2311 34.385 59.4425 33.4043 59.5484 32.4093ZM48.556 43.4688C47.8604 43.9183 47.7607 44.1303 47.1161 43.6225C45.8803 42.6442 44.4382 41.6775 43.2325 40.6643C42.5106 40.0417 41.8471 39.354 41.2501 38.6099C40.9409 38.2263 40.6318 37.8195 40.3226 37.3893C37.9044 33.9094 36.3115 29.2205 40.3226 27.1405C42.727 25.8943 45.1105 26.4417 47.0257 28.3284C47.61 28.9014 47.5103 29.1996 48.0714 28.6009C49.0174 27.5924 50.2462 26.6746 51.6397 26.4603C53.6267 26.1575 56.1053 27.2453 57.0629 29.0435C58.3984 31.5498 56.5458 35.1346 55.0735 37.3893C54.9808 37.5314 54.8904 37.6688 54.7999 37.8016C54.6098 38.0842 54.4089 38.3583 54.1971 38.6239C52.6645 40.5851 50.6381 42.1457 48.556 43.4688Z" fill="#ED004F"/>
</svg>
